<svg width="40" height="40" viewBox="0 0 40 40" fill="none" xmlns="http://www.w3.org/2000/svg">
    <path fill-rule="evenodd" clip-rule="evenodd" d="M20.0001 0L9.25509 6.12683L13.2055 8.39028L20.0001 4.52683L26.7946 8.39028L30.745 6.12683L20.0001 0ZM26.7946 11.5903L30.745 13.8537V18.3805L23.9503 22.2439V29.9708L20.0001 32.2343L16.0497 29.9708V22.2439L9.25509 18.3805V13.8537L13.2055 11.5903L20.0001 15.4536L26.7946 11.5903ZM30.745 21.5805V26.1074L26.7946 28.3709V23.8439L30.745 21.5805ZM26.7551 31.5707L33.5498 27.7073V19.9805L37.5 17.7171V29.9708L26.7551 36.0975V31.5707ZM33.5498 12.2537L29.5994 9.99028L33.5498 7.72684L37.5 9.99028V14.5171L33.5498 16.7806V12.2537ZM16.0497 37.7367V33.2098L20.0001 35.4732L23.9503 33.2098V37.7367L20.0001 40L16.0497 37.7367ZM13.2055 28.3709L9.25509 26.1074V21.5805L13.2055 23.8439V28.3709ZM20.0001 12.2537L16.0497 9.99028L20.0001 7.72684L23.9503 9.99028L20.0001 12.2537ZM10.4007 9.99028L6.45033 12.2537V16.7806L2.5 14.5171V9.99028L6.45033 7.72684L10.4007 9.99028ZM2.5 17.7171L6.45033 19.9805V27.7073L13.2449 31.5707V36.0975L2.5 29.9708V17.7171Z" fill="#F0B90B"/>
</svg>
