<svg width="48" height="48" viewBox="0 0 48 48" fill="none" xmlns="http://www.w3.org/2000/svg">
    <path d="M37 24C37 31.1797 31.1797 37 24 37C16.8203 37 11 31.1797 11 24C11 16.8203 16.8203 11 24 11C31.1797 11 37 16.8203 37 24Z" fill="url(#paint0_radial)"/>
    <path d="M29 26.7875C29 24.3218 26.9042 23.4244 24.6459 23.0074C22.5863 22.672 21.5655 22.2006 21.5655 21.1671C21.5655 20.3875 22.0262 19.5989 23.8871 19.5989C25.5583 19.5989 26.29 20.3694 26.29 21.3212H28.5393C28.5393 19.4357 27.4011 18.0759 25.1698 17.7133V16H23.1012V17.6589C20.4815 17.9037 19.3162 19.336 19.3162 21.1581C19.3162 23.7144 21.8365 24.4578 23.8961 24.8839C25.6034 25.2102 26.7236 25.6363 26.7236 26.7785C26.7236 28.0023 25.8293 28.6187 23.9864 28.6187C22.252 28.6187 21.2493 27.6941 21.2493 26.5428H19C19 28.3014 20.2014 30.1598 23.1012 30.4771V32H25.1698V30.4499C27.5276 30.1416 29 28.8544 29 26.7875Z" fill="url(#paint1_radial)"/>
    <path d="M10.9875 9.07663C14.4682 6.0386 19.0188 4.19978 24.001 4.19978C34.9364 4.19978 43.8013 13.0646 43.8013 24C43.8013 34.9354 34.9364 43.8003 24.001 43.8003C13.0657 43.8003 4.20082 34.9354 4.20082 24C4.20082 23.3373 3.66354 22.8 3.00078 22.8C2.33807 22.8 1.80078 23.3373 1.80078 24C1.80078 36.2609 11.7402 46.2003 24.001 46.2003C36.2619 46.2003 46.2013 36.2609 46.2013 24C46.2013 11.7392 36.2619 1.79974 24.001 1.79974C18.1503 1.79974 12.8261 4.06456 8.86123 7.76297L4.50052 5.06877L6.56959 13.8278L15.3286 11.7587L10.9875 9.07663Z" fill="url(#paint2_angular)"/>
    <defs>
        <radialGradient id="paint0_radial" cx="0" cy="0" r="1" gradientUnits="userSpaceOnUse" gradientTransform="translate(29.0323 37) rotate(-140.179) scale(27.3001 49.2537)">
            <stop stop-color="#1263F1"/>
            <stop offset="1" stop-color="#009EF8" stop-opacity="0.14"/>
        </radialGradient>
        <radialGradient id="paint1_radial" cx="0" cy="0" r="1" gradientUnits="userSpaceOnUse" gradientTransform="translate(29.945 37.7562) rotate(-135.595) scale(39.7987 88.1258)">
            <stop stop-color="#B4EDFF"/>
            <stop offset="1" stop-color="#0063FF" stop-opacity="0.81"/>
        </radialGradient>
        <radialGradient id="paint2_angular" cx="0" cy="0" r="1" gradientUnits="userSpaceOnUse" gradientTransform="translate(24.0011 24) rotate(90) scale(22.2003)">
            <stop offset="0.250071" stop-color="#022966" stop-opacity="0"/>
            <stop offset="0.334248" stop-color="#85C8FC"/>
        </radialGradient>
    </defs>
</svg>
